<?xml version="1.0" encoding="UTF-8" standalone="no"?>
<!DOCTYPE svg PUBLIC "-//W3C//DTD SVG 1.1//EN"
 "http://www.w3.org/Graphics/SVG/1.1/DTD/svg11.dtd">
<!-- Generated by graphviz version 2.47.3 (20210619.1520)
 -->
<!-- Title: dependencies Pages: 1 -->
<svg width="2060pt" height="247pt"
 viewBox="0.00 0.00 2060.00 246.80" xmlns="http://www.w3.org/2000/svg" xmlns:xlink="http://www.w3.org/1999/xlink">
<g id="graph0" class="graph" transform="scale(1 1) rotate(0) translate(4 242.8)">
<title>dependencies</title>
<polygon fill="white" stroke="transparent" points="-4,4 -4,-242.8 2056,-242.8 2056,4 -4,4"/>
<text text-anchor="middle" x="1026" y="-8.2" font-family="sans-serif" font-size="14.00">dependencies</text>
<g id="clust1" class="cluster">
<title>cluster_AppModule</title>
<polygon fill="none" stroke="black" stroke-dasharray="1,5" points="8,-32.8 8,-230.8 2044,-230.8 2044,-32.8 8,-32.8"/>
</g>
<g id="clust14" class="cluster">
<title>cluster_AppModule_imports</title>
<polygon fill="none" stroke="black" points="1892,-40.8 1892,-92.8 2036,-92.8 2036,-40.8 1892,-40.8"/>
</g>
<g id="clust16" class="cluster">
<title>cluster_AppModule_bootstrap</title>
<polygon fill="none" stroke="black" points="1037,-170.8 1037,-222.8 1161,-222.8 1161,-170.8 1037,-170.8"/>
</g>
<g id="clust2" class="cluster">
<title>cluster_AppModule_declarations</title>
<polygon fill="none" stroke="black" points="16,-40.8 16,-92.8 1884,-92.8 1884,-40.8 16,-40.8"/>
</g>
<!-- AppComponent -->
<g id="node1" class="node">
<title>AppComponent</title>
<polygon fill="#ffffb3" stroke="black" points="1875.94,-84.8 1770.06,-84.8 1770.06,-48.8 1875.94,-48.8 1875.94,-84.8"/>
<text text-anchor="middle" x="1823" y="-62.6" font-family="Times,serif" font-size="14.00">AppComponent</text>
</g>
<!-- AppModule -->
<g id="node12" class="node">
<title>AppModule</title>
<polygon fill="#8dd3c7" stroke="black" points="1140.66,-149.8 1137.66,-153.8 1116.66,-153.8 1113.66,-149.8 1057.34,-149.8 1057.34,-113.8 1140.66,-113.8 1140.66,-149.8"/>
<text text-anchor="middle" x="1099" y="-127.6" font-family="Times,serif" font-size="14.00">AppModule</text>
</g>
<!-- AppComponent&#45;&gt;AppModule -->
<g id="edge1" class="edge">
<title>AppComponent&#45;&gt;AppModule</title>
<path fill="none" stroke="black" d="M1823,-85.08C1823,-106.12 1823,-137.8 1823,-137.8 1823,-137.8 1150.79,-137.8 1150.79,-137.8"/>
<polygon fill="black" stroke="black" points="1150.79,-134.3 1140.79,-137.8 1150.79,-141.3 1150.79,-134.3"/>
</g>
<!-- DirectorCardComponent -->
<g id="node2" class="node">
<title>DirectorCardComponent</title>
<polygon fill="#ffffb3" stroke="black" points="1752.68,-84.8 1597.32,-84.8 1597.32,-48.8 1752.68,-48.8 1752.68,-84.8"/>
<text text-anchor="middle" x="1675" y="-62.6" font-family="Times,serif" font-size="14.00">DirectorCardComponent</text>
</g>
<!-- DirectorCardComponent&#45;&gt;AppModule -->
<g id="edge2" class="edge">
<title>DirectorCardComponent&#45;&gt;AppModule</title>
<path fill="none" stroke="black" d="M1675,-84.91C1675,-104.14 1675,-131.8 1675,-131.8 1675,-131.8 1150.89,-131.8 1150.89,-131.8"/>
<polygon fill="black" stroke="black" points="1150.89,-128.3 1140.89,-131.8 1150.89,-135.3 1150.89,-128.3"/>
</g>
<!-- EditProfileComponent -->
<g id="node3" class="node">
<title>EditProfileComponent</title>
<polygon fill="#ffffb3" stroke="black" points="1579.27,-84.8 1436.73,-84.8 1436.73,-48.8 1579.27,-48.8 1579.27,-84.8"/>
<text text-anchor="middle" x="1508" y="-62.6" font-family="Times,serif" font-size="14.00">EditProfileComponent</text>
</g>
<!-- EditProfileComponent&#45;&gt;AppModule -->
<g id="edge3" class="edge">
<title>EditProfileComponent&#45;&gt;AppModule</title>
<path fill="none" stroke="black" d="M1508,-84.82C1508,-102.17 1508,-125.8 1508,-125.8 1508,-125.8 1150.85,-125.8 1150.85,-125.8"/>
<polygon fill="black" stroke="black" points="1150.85,-122.3 1140.85,-125.8 1150.85,-129.3 1150.85,-122.3"/>
</g>
<!-- GenreDialogComponent -->
<g id="node4" class="node">
<title>GenreDialogComponent</title>
<polygon fill="#ffffb3" stroke="black" points="1418.63,-84.8 1265.37,-84.8 1265.37,-48.8 1418.63,-48.8 1418.63,-84.8"/>
<text text-anchor="middle" x="1342" y="-62.6" font-family="Times,serif" font-size="14.00">GenreDialogComponent</text>
</g>
<!-- GenreDialogComponent&#45;&gt;AppModule -->
<g id="edge4" class="edge">
<title>GenreDialogComponent&#45;&gt;AppModule</title>
<path fill="none" stroke="black" d="M1342,-85.04C1342,-100.37 1342,-119.8 1342,-119.8 1342,-119.8 1150.77,-119.8 1150.77,-119.8"/>
<polygon fill="black" stroke="black" points="1150.77,-116.3 1140.77,-119.8 1150.77,-123.3 1150.77,-116.3"/>
</g>
<!-- MovieCardComponent -->
<g id="node5" class="node">
<title>MovieCardComponent</title>
<polygon fill="#ffffb3" stroke="black" points="1247.59,-84.8 1102.41,-84.8 1102.41,-48.8 1247.59,-48.8 1247.59,-84.8"/>
<text text-anchor="middle" x="1175" y="-62.6" font-family="Times,serif" font-size="14.00">MovieCardComponent</text>
</g>
<!-- MovieCardComponent&#45;&gt;AppModule -->
<g id="edge5" class="edge">
<title>MovieCardComponent&#45;&gt;AppModule</title>
<path fill="none" stroke="black" d="M1121.64,-84.91C1121.64,-84.91 1121.64,-103.79 1121.64,-103.79"/>
<polygon fill="black" stroke="black" points="1118.14,-103.79 1121.64,-113.79 1125.14,-103.79 1118.14,-103.79"/>
</g>
<!-- NavbarComponent -->
<g id="node6" class="node">
<title>NavbarComponent</title>
<polygon fill="#ffffb3" stroke="black" points="1084.03,-84.8 961.97,-84.8 961.97,-48.8 1084.03,-48.8 1084.03,-84.8"/>
<text text-anchor="middle" x="1023" y="-62.6" font-family="Times,serif" font-size="14.00">NavbarComponent</text>
</g>
<!-- NavbarComponent&#45;&gt;AppModule -->
<g id="edge6" class="edge">
<title>NavbarComponent&#45;&gt;AppModule</title>
<path fill="none" stroke="black" d="M1070.72,-84.91C1070.72,-84.91 1070.72,-103.79 1070.72,-103.79"/>
<polygon fill="black" stroke="black" points="1067.22,-103.79 1070.72,-113.79 1074.22,-103.79 1067.22,-103.79"/>
</g>
<!-- ProfileViewComponent -->
<g id="node7" class="node">
<title>ProfileViewComponent</title>
<polygon fill="#ffffb3" stroke="black" points="943.75,-84.8 794.25,-84.8 794.25,-48.8 943.75,-48.8 943.75,-84.8"/>
<text text-anchor="middle" x="869" y="-62.6" font-family="Times,serif" font-size="14.00">ProfileViewComponent</text>
</g>
<!-- ProfileViewComponent&#45;&gt;AppModule -->
<g id="edge7" class="edge">
<title>ProfileViewComponent&#45;&gt;AppModule</title>
<path fill="none" stroke="black" d="M869,-85.04C869,-100.37 869,-119.8 869,-119.8 869,-119.8 1047.08,-119.8 1047.08,-119.8"/>
<polygon fill="black" stroke="black" points="1047.08,-123.3 1057.08,-119.8 1047.08,-116.3 1047.08,-123.3"/>
</g>
<!-- SynopsisCardComponent -->
<g id="node8" class="node">
<title>SynopsisCardComponent</title>
<polygon fill="#ffffb3" stroke="black" points="776.61,-84.8 617.39,-84.8 617.39,-48.8 776.61,-48.8 776.61,-84.8"/>
<text text-anchor="middle" x="697" y="-62.6" font-family="Times,serif" font-size="14.00">SynopsisCardComponent</text>
</g>
<!-- SynopsisCardComponent&#45;&gt;AppModule -->
<g id="edge8" class="edge">
<title>SynopsisCardComponent&#45;&gt;AppModule</title>
<path fill="none" stroke="black" d="M697,-84.82C697,-102.17 697,-125.8 697,-125.8 697,-125.8 1047.12,-125.8 1047.12,-125.8"/>
<polygon fill="black" stroke="black" points="1047.12,-129.3 1057.12,-125.8 1047.12,-122.3 1047.12,-129.3"/>
</g>
<!-- UserLoginFormComponent -->
<g id="node9" class="node">
<title>UserLoginFormComponent</title>
<polygon fill="#ffffb3" stroke="black" points="599.54,-84.8 428.46,-84.8 428.46,-48.8 599.54,-48.8 599.54,-84.8"/>
<text text-anchor="middle" x="514" y="-62.6" font-family="Times,serif" font-size="14.00">UserLoginFormComponent</text>
</g>
<!-- UserLoginFormComponent&#45;&gt;AppModule -->
<g id="edge9" class="edge">
<title>UserLoginFormComponent&#45;&gt;AppModule</title>
<path fill="none" stroke="black" d="M514,-84.91C514,-104.14 514,-131.8 514,-131.8 514,-131.8 1046.93,-131.8 1046.93,-131.8"/>
<polygon fill="black" stroke="black" points="1046.93,-135.3 1056.93,-131.8 1046.93,-128.3 1046.93,-135.3"/>
</g>
<!-- UserRegistrationFormComponent -->
<g id="node10" class="node">
<title>UserRegistrationFormComponent</title>
<polygon fill="#ffffb3" stroke="black" points="410.03,-84.8 203.97,-84.8 203.97,-48.8 410.03,-48.8 410.03,-84.8"/>
<text text-anchor="middle" x="307" y="-62.6" font-family="Times,serif" font-size="14.00">UserRegistrationFormComponent</text>
</g>
<!-- UserRegistrationFormComponent&#45;&gt;AppModule -->
<g id="edge10" class="edge">
<title>UserRegistrationFormComponent&#45;&gt;AppModule</title>
<path fill="none" stroke="black" d="M307,-85.08C307,-106.12 307,-137.8 307,-137.8 307,-137.8 1047.26,-137.8 1047.26,-137.8"/>
<polygon fill="black" stroke="black" points="1047.26,-141.3 1057.26,-137.8 1047.26,-134.3 1047.26,-141.3"/>
</g>
<!-- WelcomePageComponent -->
<g id="node11" class="node">
<title>WelcomePageComponent</title>
<polygon fill="#ffffb3" stroke="black" points="186.18,-84.8 23.82,-84.8 23.82,-48.8 186.18,-48.8 186.18,-84.8"/>
<text text-anchor="middle" x="105" y="-62.6" font-family="Times,serif" font-size="14.00">WelcomePageComponent</text>
</g>
<!-- WelcomePageComponent&#45;&gt;AppModule -->
<g id="edge11" class="edge">
<title>WelcomePageComponent&#45;&gt;AppModule</title>
<path fill="none" stroke="black" d="M105,-85.05C105,-107.82 105,-143.8 105,-143.8 105,-143.8 1047.24,-143.8 1047.24,-143.8"/>
<polygon fill="black" stroke="black" points="1047.24,-147.3 1057.24,-143.8 1047.24,-140.3 1047.24,-147.3"/>
</g>
<!-- AppComponent  -->
<g id="node14" class="node">
<title>AppComponent </title>
<polygon fill="#80b1d3" stroke="black" points="1153.44,-214.8 1044.56,-214.8 1044.56,-178.8 1153.44,-178.8 1153.44,-214.8"/>
<text text-anchor="middle" x="1099" y="-192.6" font-family="Times,serif" font-size="14.00">AppComponent </text>
</g>
<!-- AppModule&#45;&gt;AppComponent  -->
<g id="edge13" class="edge">
<title>AppModule&#45;&gt;AppComponent </title>
<path fill="none" stroke="black" stroke-dasharray="1,5" d="M1099,-149.91C1099,-149.91 1099,-168.79 1099,-168.79"/>
<polygon fill="black" stroke="black" points="1095.5,-168.79 1099,-178.79 1102.5,-168.79 1095.5,-168.79"/>
</g>
<!-- AppRoutingModule -->
<g id="node13" class="node">
<title>AppRoutingModule</title>
<polygon fill="#8dd3c7" stroke="black" points="2028.27,-84.8 2025.27,-88.8 2004.27,-88.8 2001.27,-84.8 1899.73,-84.8 1899.73,-48.8 2028.27,-48.8 2028.27,-84.8"/>
<text text-anchor="middle" x="1964" y="-62.6" font-family="Times,serif" font-size="14.00">AppRoutingModule</text>
</g>
<!-- AppRoutingModule&#45;&gt;AppModule -->
<g id="edge12" class="edge">
<title>AppRoutingModule&#45;&gt;AppModule</title>
<path fill="none" stroke="black" d="M1964,-85.05C1964,-107.82 1964,-143.8 1964,-143.8 1964,-143.8 1150.72,-143.8 1150.72,-143.8"/>
<polygon fill="black" stroke="black" points="1150.72,-140.3 1140.72,-143.8 1150.72,-147.3 1150.72,-140.3"/>
</g>
</g>
</svg>
