<?xml version="1.0" encoding="UTF-8" standalone="no"?>
<!DOCTYPE svg PUBLIC "-//W3C//DTD SVG 1.1//EN"
 "http://www.w3.org/Graphics/SVG/1.1/DTD/svg11.dtd">
<!-- Generated by graphviz version 2.47.3 (20210619.1520)
 -->
<!-- Title: dependencies Pages: 1 -->
<svg width="2060pt" height="247pt"
 viewBox="0.00 0.00 2060.00 246.80" xmlns="http://www.w3.org/2000/svg" xmlns:xlink="http://www.w3.org/1999/xlink">
<g id="graph0" class="graph" transform="scale(1 1) rotate(0) translate(4 242.8)">
<title>dependencies</title>
<polygon fill="white" stroke="transparent" points="-4,4 -4,-242.8 2056,-242.8 2056,4 -4,4"/>
<text text-anchor="middle" x="1026" y="-8.2" font-family="sans-serif" font-size="14.00">dependencies</text>
<g id="clust1" class="cluster">
<title>cluster_AppModule</title>
<polygon fill="none" stroke="black" stroke-dasharray="1,5" points="8,-32.8 8,-230.8 2044,-230.8 2044,-32.8 8,-32.8"/>
</g>
<g id="clust2" class="cluster">
<title>cluster_AppModule_declarations</title>
<polygon fill="none" stroke="black" points="168,-40.8 168,-92.8 2036,-92.8 2036,-40.8 168,-40.8"/>
</g>
<g id="clust14" class="cluster">
<title>cluster_AppModule_imports</title>
<polygon fill="none" stroke="black" points="16,-40.8 16,-92.8 160,-92.8 160,-40.8 16,-40.8"/>
</g>
<g id="clust16" class="cluster">
<title>cluster_AppModule_bootstrap</title>
<polygon fill="none" stroke="black" points="1036,-170.8 1036,-222.8 1160,-222.8 1160,-170.8 1036,-170.8"/>
</g>
<!-- AppComponent -->
<g id="node1" class="node">
<title>AppComponent</title>
<polygon fill="#ffffb3" stroke="black" points="2027.94,-84.8 1922.06,-84.8 1922.06,-48.8 2027.94,-48.8 2027.94,-84.8"/>
<text text-anchor="middle" x="1975" y="-62.6" font-family="Times,serif" font-size="14.00">AppComponent</text>
</g>
<!-- AppModule -->
<g id="node12" class="node">
<title>AppModule</title>
<polygon fill="#8dd3c7" stroke="black" points="1139.66,-149.8 1136.66,-153.8 1115.66,-153.8 1112.66,-149.8 1056.34,-149.8 1056.34,-113.8 1139.66,-113.8 1139.66,-149.8"/>
<text text-anchor="middle" x="1098" y="-127.6" font-family="Times,serif" font-size="14.00">AppModule</text>
</g>
<!-- AppComponent&#45;&gt;AppModule -->
<g id="edge1" class="edge">
<title>AppComponent&#45;&gt;AppModule</title>
<path fill="none" stroke="black" d="M1975,-85.05C1975,-107.82 1975,-143.8 1975,-143.8 1975,-143.8 1149.71,-143.8 1149.71,-143.8"/>
<polygon fill="black" stroke="black" points="1149.71,-140.3 1139.71,-143.8 1149.71,-147.3 1149.71,-140.3"/>
</g>
<!-- DirectorCardComponent -->
<g id="node2" class="node">
<title>DirectorCardComponent</title>
<polygon fill="#ffffb3" stroke="black" points="1904.68,-84.8 1749.32,-84.8 1749.32,-48.8 1904.68,-48.8 1904.68,-84.8"/>
<text text-anchor="middle" x="1827" y="-62.6" font-family="Times,serif" font-size="14.00">DirectorCardComponent</text>
</g>
<!-- DirectorCardComponent&#45;&gt;AppModule -->
<g id="edge2" class="edge">
<title>DirectorCardComponent&#45;&gt;AppModule</title>
<path fill="none" stroke="black" d="M1827,-85.08C1827,-106.12 1827,-137.8 1827,-137.8 1827,-137.8 1149.81,-137.8 1149.81,-137.8"/>
<polygon fill="black" stroke="black" points="1149.81,-134.3 1139.81,-137.8 1149.81,-141.3 1149.81,-134.3"/>
</g>
<!-- EditProfileComponent -->
<g id="node3" class="node">
<title>EditProfileComponent</title>
<polygon fill="#ffffb3" stroke="black" points="1731.27,-84.8 1588.73,-84.8 1588.73,-48.8 1731.27,-48.8 1731.27,-84.8"/>
<text text-anchor="middle" x="1660" y="-62.6" font-family="Times,serif" font-size="14.00">EditProfileComponent</text>
</g>
<!-- EditProfileComponent&#45;&gt;AppModule -->
<g id="edge3" class="edge">
<title>EditProfileComponent&#45;&gt;AppModule</title>
<path fill="none" stroke="black" d="M1660,-84.91C1660,-104.14 1660,-131.8 1660,-131.8 1660,-131.8 1149.78,-131.8 1149.78,-131.8"/>
<polygon fill="black" stroke="black" points="1149.78,-128.3 1139.78,-131.8 1149.78,-135.3 1149.78,-128.3"/>
</g>
<!-- GenreDialogComponent -->
<g id="node4" class="node">
<title>GenreDialogComponent</title>
<polygon fill="#ffffb3" stroke="black" points="1570.63,-84.8 1417.37,-84.8 1417.37,-48.8 1570.63,-48.8 1570.63,-84.8"/>
<text text-anchor="middle" x="1494" y="-62.6" font-family="Times,serif" font-size="14.00">GenreDialogComponent</text>
</g>
<!-- GenreDialogComponent&#45;&gt;AppModule -->
<g id="edge4" class="edge">
<title>GenreDialogComponent&#45;&gt;AppModule</title>
<path fill="none" stroke="black" d="M1494,-84.82C1494,-102.17 1494,-125.8 1494,-125.8 1494,-125.8 1150,-125.8 1150,-125.8"/>
<polygon fill="black" stroke="black" points="1150,-122.3 1140,-125.8 1150,-129.3 1150,-122.3"/>
</g>
<!-- MovieCardComponent -->
<g id="node5" class="node">
<title>MovieCardComponent</title>
<polygon fill="#ffffb3" stroke="black" points="1399.59,-84.8 1254.41,-84.8 1254.41,-48.8 1399.59,-48.8 1399.59,-84.8"/>
<text text-anchor="middle" x="1327" y="-62.6" font-family="Times,serif" font-size="14.00">MovieCardComponent</text>
</g>
<!-- MovieCardComponent&#45;&gt;AppModule -->
<g id="edge5" class="edge">
<title>MovieCardComponent&#45;&gt;AppModule</title>
<path fill="none" stroke="black" d="M1327,-85.04C1327,-100.37 1327,-119.8 1327,-119.8 1327,-119.8 1149.74,-119.8 1149.74,-119.8"/>
<polygon fill="black" stroke="black" points="1149.74,-116.3 1139.74,-119.8 1149.74,-123.3 1149.74,-116.3"/>
</g>
<!-- NavbarComponent -->
<g id="node6" class="node">
<title>NavbarComponent</title>
<polygon fill="#ffffb3" stroke="black" points="1236.03,-84.8 1113.97,-84.8 1113.97,-48.8 1236.03,-48.8 1236.03,-84.8"/>
<text text-anchor="middle" x="1175" y="-62.6" font-family="Times,serif" font-size="14.00">NavbarComponent</text>
</g>
<!-- NavbarComponent&#45;&gt;AppModule -->
<g id="edge6" class="edge">
<title>NavbarComponent&#45;&gt;AppModule</title>
<path fill="none" stroke="black" d="M1126.78,-84.91C1126.78,-84.91 1126.78,-103.79 1126.78,-103.79"/>
<polygon fill="black" stroke="black" points="1123.28,-103.79 1126.78,-113.79 1130.28,-103.79 1123.28,-103.79"/>
</g>
<!-- ProfileViewComponent -->
<g id="node7" class="node">
<title>ProfileViewComponent</title>
<polygon fill="#ffffb3" stroke="black" points="1095.75,-84.8 946.25,-84.8 946.25,-48.8 1095.75,-48.8 1095.75,-84.8"/>
<text text-anchor="middle" x="1021" y="-62.6" font-family="Times,serif" font-size="14.00">ProfileViewComponent</text>
</g>
<!-- ProfileViewComponent&#45;&gt;AppModule -->
<g id="edge7" class="edge">
<title>ProfileViewComponent&#45;&gt;AppModule</title>
<path fill="none" stroke="black" d="M1076.02,-84.91C1076.02,-84.91 1076.02,-103.79 1076.02,-103.79"/>
<polygon fill="black" stroke="black" points="1072.52,-103.79 1076.02,-113.79 1079.52,-103.79 1072.52,-103.79"/>
</g>
<!-- SynopsisCardComponent -->
<g id="node8" class="node">
<title>SynopsisCardComponent</title>
<polygon fill="#ffffb3" stroke="black" points="928.61,-84.8 769.39,-84.8 769.39,-48.8 928.61,-48.8 928.61,-84.8"/>
<text text-anchor="middle" x="849" y="-62.6" font-family="Times,serif" font-size="14.00">SynopsisCardComponent</text>
</g>
<!-- SynopsisCardComponent&#45;&gt;AppModule -->
<g id="edge8" class="edge">
<title>SynopsisCardComponent&#45;&gt;AppModule</title>
<path fill="none" stroke="black" d="M849,-85.04C849,-100.37 849,-119.8 849,-119.8 849,-119.8 1046.32,-119.8 1046.32,-119.8"/>
<polygon fill="black" stroke="black" points="1046.32,-123.3 1056.32,-119.8 1046.32,-116.3 1046.32,-123.3"/>
</g>
<!-- UserLoginFormComponent -->
<g id="node9" class="node">
<title>UserLoginFormComponent</title>
<polygon fill="#ffffb3" stroke="black" points="751.54,-84.8 580.46,-84.8 580.46,-48.8 751.54,-48.8 751.54,-84.8"/>
<text text-anchor="middle" x="666" y="-62.6" font-family="Times,serif" font-size="14.00">UserLoginFormComponent</text>
</g>
<!-- UserLoginFormComponent&#45;&gt;AppModule -->
<g id="edge9" class="edge">
<title>UserLoginFormComponent&#45;&gt;AppModule</title>
<path fill="none" stroke="black" d="M666,-84.82C666,-102.17 666,-125.8 666,-125.8 666,-125.8 1046.19,-125.8 1046.19,-125.8"/>
<polygon fill="black" stroke="black" points="1046.19,-129.3 1056.19,-125.8 1046.19,-122.3 1046.19,-129.3"/>
</g>
<!-- UserRegistrationFormComponent -->
<g id="node10" class="node">
<title>UserRegistrationFormComponent</title>
<polygon fill="#ffffb3" stroke="black" points="562.03,-84.8 355.97,-84.8 355.97,-48.8 562.03,-48.8 562.03,-84.8"/>
<text text-anchor="middle" x="459" y="-62.6" font-family="Times,serif" font-size="14.00">UserRegistrationFormComponent</text>
</g>
<!-- UserRegistrationFormComponent&#45;&gt;AppModule -->
<g id="edge10" class="edge">
<title>UserRegistrationFormComponent&#45;&gt;AppModule</title>
<path fill="none" stroke="black" d="M459,-84.91C459,-104.14 459,-131.8 459,-131.8 459,-131.8 1046.07,-131.8 1046.07,-131.8"/>
<polygon fill="black" stroke="black" points="1046.07,-135.3 1056.07,-131.8 1046.07,-128.3 1046.07,-135.3"/>
</g>
<!-- WelcomePageComponent -->
<g id="node11" class="node">
<title>WelcomePageComponent</title>
<polygon fill="#ffffb3" stroke="black" points="338.18,-84.8 175.82,-84.8 175.82,-48.8 338.18,-48.8 338.18,-84.8"/>
<text text-anchor="middle" x="257" y="-62.6" font-family="Times,serif" font-size="14.00">WelcomePageComponent</text>
</g>
<!-- WelcomePageComponent&#45;&gt;AppModule -->
<g id="edge11" class="edge">
<title>WelcomePageComponent&#45;&gt;AppModule</title>
<path fill="none" stroke="black" d="M257,-85.08C257,-106.12 257,-137.8 257,-137.8 257,-137.8 1046.29,-137.8 1046.29,-137.8"/>
<polygon fill="black" stroke="black" points="1046.29,-141.3 1056.29,-137.8 1046.29,-134.3 1046.29,-141.3"/>
</g>
<!-- AppComponent  -->
<g id="node14" class="node">
<title>AppComponent </title>
<polygon fill="#80b1d3" stroke="black" points="1152.44,-214.8 1043.56,-214.8 1043.56,-178.8 1152.44,-178.8 1152.44,-214.8"/>
<text text-anchor="middle" x="1098" y="-192.6" font-family="Times,serif" font-size="14.00">AppComponent </text>
</g>
<!-- AppModule&#45;&gt;AppComponent  -->
<g id="edge13" class="edge">
<title>AppModule&#45;&gt;AppComponent </title>
<path fill="none" stroke="black" stroke-dasharray="1,5" d="M1098,-149.91C1098,-149.91 1098,-168.79 1098,-168.79"/>
<polygon fill="black" stroke="black" points="1094.5,-168.79 1098,-178.79 1101.5,-168.79 1094.5,-168.79"/>
</g>
<!-- AppRoutingModule -->
<g id="node13" class="node">
<title>AppRoutingModule</title>
<polygon fill="#8dd3c7" stroke="black" points="152.27,-84.8 149.27,-88.8 128.27,-88.8 125.27,-84.8 23.73,-84.8 23.73,-48.8 152.27,-48.8 152.27,-84.8"/>
<text text-anchor="middle" x="88" y="-62.6" font-family="Times,serif" font-size="14.00">AppRoutingModule</text>
</g>
<!-- AppRoutingModule&#45;&gt;AppModule -->
<g id="edge12" class="edge">
<title>AppRoutingModule&#45;&gt;AppModule</title>
<path fill="none" stroke="black" d="M88,-85.05C88,-107.82 88,-143.8 88,-143.8 88,-143.8 1046.21,-143.8 1046.21,-143.8"/>
<polygon fill="black" stroke="black" points="1046.21,-147.3 1056.21,-143.8 1046.21,-140.3 1046.21,-147.3"/>
</g>
</g>
</svg>
